<?xml version="1.0" encoding="UTF-8" standalone="no"?>
<!-- Created with Inkscape (http://www.inkscape.org/) -->

<svg
   xmlns:dc="http://purl.org/dc/elements/1.1/"
   xmlns:cc="http://creativecommons.org/ns#"
   xmlns:rdf="http://www.w3.org/1999/02/22-rdf-syntax-ns#"
   xmlns:svg="http://www.w3.org/2000/svg"
   xmlns="http://www.w3.org/2000/svg"
   xmlns:sodipodi="http://sodipodi.sourceforge.net/DTD/sodipodi-0.dtd"
   xmlns:inkscape="http://www.inkscape.org/namespaces/inkscape"
   id="svg3036"
   version="1.1"
   inkscape:version="0.48.5 r10040"
   width="500.10733"
   height="350.86655"
   sodipodi:docname="logo-with-type.svg"
   inkscape:export-filename="/home/kyle/downloads/artless-devices.png"
   inkscape:export-xdpi="90.339996"
   inkscape:export-ydpi="90.339996">
  <metadata
     id="metadata3042">
    <rdf:RDF>
      <cc:Work
         rdf:about="">
        <dc:format>image/svg+xml</dc:format>
        <dc:type
           rdf:resource="http://purl.org/dc/dcmitype/StillImage" />
        <dc:title></dc:title>
      </cc:Work>
    </rdf:RDF>
  </metadata>
  <defs
     id="defs3040" />
  <sodipodi:namedview
     pagecolor="#ffffff"
     bordercolor="#666666"
     borderopacity="1"
     objecttolerance="10"
     gridtolerance="10"
     guidetolerance="10"
     inkscape:pageopacity="0"
     inkscape:pageshadow="2"
     inkscape:window-width="1598"
     inkscape:window-height="881"
     id="namedview3038"
     showgrid="false"
     inkscape:zoom="1.6591337"
     inkscape:cx="204.21931"
     inkscape:cy="239.01391"
     inkscape:window-x="0"
     inkscape:window-y="0"
     inkscape:window-maximized="0"
     inkscape:current-layer="svg3036"
     fit-margin-top="0"
     fit-margin-left="0"
     fit-margin-right="0"
     fit-margin-bottom="0" />
  <path
     style="fill:#000000;fill-opacity:1;stroke:#000000;stroke-width:2;stroke-linejoin:round;stroke-miterlimit:4;stroke-opacity:1;stroke-dasharray:none"
     d="M 106.8125 109.5 C 99.002239 109.70974 89.049322 113.0443 76.0625 121.21875 L 80.875 127.53125 C 97.751282 115.77805 116.12844 131.77745 100.15625 151.96875 L 26.9375 151.96875 L 25.71875 179.6875 C 25.654287 181.1701 32.396343 187.516 34.75 187.5 L 78.46875 187.21875 C 81.783742 209.82085 85.984112 207.5527 1 210.125 C 109.04906 288.8366 134.25443 195.0122 147.78125 187.8125 C 156.85012 186.3458 167.96875 185.71875 167.96875 185.71875 C 169.08594 200.41235 199.3125 197.46875 199.3125 197.46875 C 207.77833 198.43965 435.45207 208.349 465.09375 201.0625 C 517.66002 188.1406 501.26674 141.185 469.625 137.1875 C 400.5587 128.4619 261.16551 134.83735 202.59375 138.40625 C 181.98811 138.70765 168.68073 135.89275 167.65625 149.84375 L 148.375 149.84375 C 135.19041 147.96023 134.70629 108.75092 106.8125 109.5 z M 147.59375 160.8125 C 151.73589 160.8125 155.09375 164.17036 155.09375 168.3125 C 155.09375 172.45464 151.73589 175.8125 147.59375 175.8125 C 143.45161 175.8125 140.09375 172.45464 140.09375 168.3125 C 140.09375 164.17036 143.45161 160.8125 147.59375 160.8125 z M 108.375 161.21875 C 112.51714 161.21875 115.875 164.57661 115.875 168.71875 C 115.875 172.86089 112.51714 176.21875 108.375 176.21875 C 104.23286 176.21875 100.875 172.86089 100.875 168.71875 C 100.875 164.57661 104.23286 161.21875 108.375 161.21875 z "
     id="path3046" />
  <text
     xml:space="preserve"
     style="font-size:40px;font-style:normal;font-weight:normal;line-height:125%;letter-spacing:0px;word-spacing:0px;fill:#000000;fill-opacity:1;stroke:none;font-family:Sans"
     x="26.701571"
     y="348.56656"
     id="text3022"
     sodipodi:linespacing="125%"><tspan
       sodipodi:role="line"
       id="tspan3024"
       x="26.701571"
       y="348.56656"
       style="font-size:100px;font-style:normal;font-variant:normal;font-weight:600;font-stretch:normal;font-family:FreeSans;-inkscape-font-specification:FreeSans Semi-Bold">DEVICES</tspan></text>
  <text
     sodipodi:linespacing="125%"
     id="text3026"
     y="74.099998"
     x="16.041414"
     style="font-size:40px;font-style:normal;font-weight:normal;line-height:125%;letter-spacing:0px;word-spacing:0px;fill:#000000;fill-opacity:1;stroke:none;font-family:Sans"
     xml:space="preserve"><tspan
       style="font-size:100px;font-style:normal;font-variant:normal;font-weight:bold;font-stretch:normal;font-family:FreeSans;-inkscape-font-specification:FreeSans"
       y="74.099998"
       x="16.041414"
       id="tspan3028"
       sodipodi:role="line">ARTLESS</tspan></text>
</svg>
